<svg xmlns="http://www.w3.org/2000/svg" version="1.1" xmlns:xlink="http://www.w3.org/1999/xlink" xmlns:svgjs="http://svgjs.dev/svgjs" width="2000" height="1500" viewBox="0 0 2000 1500"><rect width="2000" height="1500" fill="#010536"></rect><g transform="matrix(0.75,0,0,0.75,249.090909090909,412.75249453378285)"><svg viewBox="0 0 396 178" data-background-color="#010536" preserveAspectRatio="xMidYMid meet" height="898" width="2000" xmlns="http://www.w3.org/2000/svg" xmlns:xlink="http://www.w3.org/1999/xlink"><g id="tight-bounds" transform="matrix(1,0,0,1,0.2400000000000091,0.13148622566689028)"><svg viewBox="0 0 395.52 177.73702754866622" height="177.73702754866622" width="395.52"><g><svg viewBox="0 0 395.52 177.73702754866622" height="177.73702754866622" width="395.52"><g transform="matrix(1,0,0,1,0,109.8486134809821)"><svg viewBox="0 0 395.52 67.88841406768414" height="67.88841406768414" width="395.52"><g id="textblocktransform"><svg viewBox="0 0 395.52 67.88841406768414" height="67.88841406768414" width="395.52" id="textblock"><g><svg viewBox="0 0 395.52 67.88841406768414" height="67.88841406768414" width="395.52"><g transform="matrix(1,0,0,1,0,0)"><svg width="395.52" viewBox="1.05 -37.8 226.04 38.8" height="67.88841406768414" data-palette-color="#fbfbf8"><g class="wordmark-text-0" data-fill-palette-color="primary" id="text-0"><path d="M4.6-2.5L5.35-6.9 7.3-32.5 3.2-33.5 3.45-35.25 9.55-35 12.8-35 12.8-34 20.6-14.55 22.85-8 22.95-8 24.95-14.2 32.85-34 32.85-35 35.85-35 42.7-35.25 42.6-33.5 38.45-32.5 40.65-7.5 41.55-2.4 44.95-1.5 44.7 0.25 38.6 0 31.75 0.25 31.85-1.5 35.45-2.35 35.6-7 35.15-14.5 33.75-29.5 33.5-29.5 31.55-23.4 23.4-2.3 24.2 0 21.8 1 20.85-1.35 11.55-23.55 9.6-29.5 9.4-29.5 8.35-13.35 8.15-6.8 8.25-2.45 11.9-1.45 11.65 0.3 6.4 0 1.05 0.25 1.15-1.5 4.6-2.5ZM49.5-4.55L47.85-9.5 47.85-16.05 50.8-22 56.45-25.75 63.3-26 69.55-22.25 72.8-16.25 72.2-7.1 68.5-1.2 60.75 1 54.25-0.25 49.5-4.55ZM56.5-23.2L53.35-17.75 53.1-12.15 53.7-6.35 55.85-2.6 61.15-1.3 66.05-3.45 67.5-11.25 67-17.75 65.15-21.9 61.5-23.75 56.5-23.2ZM84.35-37.25L84.1-30.45 83.95-22.25 89.5-25.65 94.6-26 99.2-22.85 99.95-18.85 99.85-8.3 100.25-2.45 103.8-1.5 103.55 0.25 97.65 0 91.55 0.25 91.65-1.5 94.95-2.5 95.3-7.75 95.1-18.65 93.75-21.95 89.5-22.7 83.9-19.85 83.8-13.15 83.9-8.3 84.05-2.5 87.7-1.5 87.45 0.25 81.55 0 75.45 0.25 75.55-1.5 78.85-2.5 79.3-7.75 79.1-29.65 78.75-34.85 75.2-34.7 74.95-36.45 81.85-37.8 84.35-37.25ZM124.99-19.8L125.04-9.1 125.39-2.05 128.84-1.55 128.49 0.1 121.54 0.7 120.89-2.25 120.64-2.25 115.69 0.7 110.49 0.7 106.99-1.85 105.94-6.75 108.14-10.65 114.14-13.25 120.74-13.5 120.54-19.75 119.59-22.85 115.54-24 110.69-22.85 110.54-17.55 108.59-17.15 107.29-24 113.04-25.7 119.49-26 123.39-24.1 124.99-19.8ZM110.79-6.85L112.14-2.8 115.89-1.85 120.94-4.75 120.74-11.5 116.39-11.5 112.54-9.95 110.79-6.85ZM154.74-8.3L155.14-2.45 158.69-1.5 158.44 0.25 152.54 0 146.44 0.25 146.54-1.5 149.84-2.5 150.19-7.75 149.99-18.65 148.64-21.95 144.39-22.7 139.44-20.05 139.34-18.15 139.04-13.15 139.14-8.3 139.39-2.5 143.04-1.5 142.79 0.25 136.89 0 130.79 0.25 130.89-1.5 134.19-2.5 134.54-7.75 134.34-17.35 134.09-22.55 130.54-22.4 130.29-24.15 137.19-25.5 139.69-24.95 139.54-22.6 144.39-25.65 149.49-26 154.09-22.85 154.34-21.5 159.34-25.65 164.44-26 169.04-22.85 169.79-18.85 169.69-8.3 170.09-2.45 173.64-1.5 173.39 0.25 167.49 0 161.39 0.25 161.49-1.5 164.79-2.5 165.14-7.75 164.94-18.65 163.59-21.95 159.34-22.7 154.74-19.35 154.84-18.85 154.74-8.3ZM189.54-12.9L180.89-13.45 180.84-13 182.19-5.95 186.14-2.05 190.74-1.55 195.44-4.05 196.34-2.75 192.39 0.4 187.69 1 182.79-0.15 178.54-3.7 175.99-11.2 176.84-17.9 179.44-22.6 184.69-25.5 189.09-26.05 192.59-24.95 195.29-22.5 196.84-18.05 196.89-13.9 196.19-13.35 189.54-12.9ZM187.19-23.8L183.39-21.55 181.44-17.75 181.14-15.5 188.74-15.4 192.19-16.15 191.89-20.8 190.39-23.35 187.19-23.8ZM219.79 0.7L218.84-2.25 218.59-2.25 213.04 1 207.49 0.4 203.84-2.2 200.94-8.15 200.89-16.65 202.79-20.6 208.54-25.25 214.09-26 218.94-24.75 218.64-34.3 214.49-34.7 214.74-36.45 221.64-37.8 223.64-37.25 223.29-17.9 223.64-2.05 227.09-1.55 226.74 0.1 219.79 0.7ZM207.19-4.6L211.49-1.55 218.84-4.35 218.94-22 213.39-23.75 210.24-22.85 206.39-18.75 205.69-13 207.19-4.6Z" fill="#fbfbf8" data-fill-palette-color="primary"></path></g></svg></g></svg></g></svg></g></svg></g><g transform="matrix(1,0,0,1,144.51308901097042,0)"><svg viewBox="0 0 106.49382197805912 93.8217882415395" height="93.8217882415395" width="106.49382197805912"><g><svg xmlns="http://www.w3.org/2000/svg" xmlns:xlink="http://www.w3.org/1999/xlink" version="1.1" x="0" y="0" viewBox="6.3 11.5 87.4 77" style="enable-background:new 0 0 100 100;" xml:space="preserve" height="93.8217882415395" width="106.49382197805912" class="icon-icon-0" data-fill-palette-color="accent" id="icon-0"><path d="M72.3 12.3L71.9 11.5H28.2L6.3 50 28.1 88.5H71.8L93.7 50zM33.3 25.3L9.9 47.7 28.5 14.9zM70.7 14.8L77.1 50.5 36.9 25.8zM35.5 27.3L76.5 52.5 35.5 75.8zM77 54.5L69.8 85.3 37.2 77.2zM33.5 75L9.9 50.5 33.5 27.8zM33.2 77.6L28.6 85.3 11.5 55.1zM35 78.6L66.4 86.5H30.2zM79.3 53.3L90.9 50.8 72.1 84zM90.7 48.9L79.3 51.4 73.4 18.3zM35 24.3L30 13.5H68.2z" fill="#ffff00" data-fill-palette-color="accent"></path></svg></g></svg></g><g></g></svg></g><defs></defs></svg><rect width="395.52" height="177.73702754866622" fill="none" stroke="none" visibility="hidden"></rect></g></svg></g></svg>